<?xml version="1.0" encoding="UTF-8"?>
<svg width="136px" height="40px" viewBox="0 0 188 55" version="1.1" xmlns="http://www.w3.org/2000/svg"
     xmlns:xlink="http://www.w3.org/1999/xlink">
    <rect fill="#101934" fill-rule="nonzero" x="0" y="0" width="188" height="55" rx="4"/>
    <g transform="translate(30.000000, 11.000000)">
        <path d="M62,0 L126,0 C127.656854,-3.04359188e-16 129,1.34314575 129,3 L129,31 C129,32.6568542 127.656854,34 126,34 L62,34 C60.3431458,34 59,32.6568542 59,31 L59,3 C59,1.34314575 60.3431458,3.04359188e-16 62,0 Z M79.95,24.93 L79.949,24.93 L75.552,17.728 C76.656,17.392 77.52,16.832 78.144,16.048 C78.768,15.264 79.08,14.296 79.08,13.144 C79.08,12.168 78.896,11.352 78.528,10.696 C78.16,10.04 77.668,9.512 77.052,9.112 C76.4138529,8.70290597 75.706179,8.41414248 74.964,8.26 C74.188,8.092 73.392,8.008 72.576,8.008 L66.096,8.008 L66.096,25 L70.128,25 L70.128,18.256 L71.52,18.256 L75.192,25 L84.384,25 L85.632,21.664 L92.208,21.664 L93.528,25 L98.088,25 L91.032,8.008 L87.048,8.008 L79.95,24.93 Z M75.024,13.216 C75.024,13.648 74.932,14 74.748,14.272 C74.564,14.544 74.328,14.752 74.04,14.896 C73.752,15.04 73.432,15.14 73.08,15.196 C72.728,15.252 72.384,15.28 72.048,15.28 L70.104,15.28 L70.104,11.32 L72.288,11.32 C72.6053269,11.3210044 72.9221613,11.3450678 73.236,11.392 C73.5452538,11.4341356 73.8453475,11.527408 74.124,11.668 C74.3854894,11.8017391 74.6085258,11.9999937 74.772,12.244 C74.94,12.492 75.024,12.816 75.024,13.216 Z M88.968,12.544 L91.08,18.376 L86.808,18.376 L88.968,12.544 Z M105.336,11.512 L110.136,11.512 L110.136,8.008 L96.432,8.008 L96.432,11.512 L101.232,11.512 L101.232,25 L105.336,25 L105.336,11.512 Z M112.008,25 L123.864,25 L123.864,21.496 L115.968,21.496 L115.968,17.968 L123.024,17.968 L123.024,14.68 L115.968,14.68 L115.968,11.488 L123.432,11.488 L123.432,8.008 L112.008,8.008 L112.008,25 Z"
              fill="#FFE500"/>
        <path d="M6,25 L5,25 L5,27 L2,27 L2,25 L0.752,25 L0.752,8.008 L2,8.008 L2,6 L5,6 L5,8.008 L6,8.008 L6,6 L9,6 L9,8.12 C9.178,8.146 9.356,8.176 9.536,8.212 C10.1947064,8.33705294 10.8275903,8.57235594 11.408,8.908 C11.968,9.236 12.424,9.68 12.776,10.24 C13.128,10.8 13.304,11.512 13.304,12.376 C13.304,13.32 13.048,14.1 12.536,14.716 C12.024,15.332 11.352,15.776 10.52,16.048 L10.52,16.096 C11,16.176 11.452,16.324 11.876,16.54 C12.2900684,16.7485432 12.6638594,17.0288864 12.98,17.368 C13.292,17.704 13.54,18.096 13.724,18.544 C13.908,18.992 14,19.496 14,20.056 C14,20.984 13.816,21.764 13.448,22.396 C13.0917011,23.0158754 12.5890723,23.5391038 11.984,23.92 C11.3461113,24.3160043 10.6433297,24.5963044 9.908,24.748 C9.608,24.813 9.306,24.865 9,24.905 L9,27 L6,27 L6,25 Z M9.344,12.928 C9.344,12.352 9.124,11.932 8.684,11.668 C8.244,11.404 7.592,11.272 6.728,11.272 L4.712,11.272 L4.712,14.776 L6.92,14.776 C7.688,14.776 8.284,14.62 8.708,14.308 C9.132,13.996 9.344,13.536 9.344,12.928 Z M9.896,19.672 C9.896,18.968 9.632,18.48 9.104,18.208 C8.576,17.936 7.872,17.8 6.992,17.8 L4.712,17.8 L4.712,21.688 L7.016,21.688 C7.336,21.688 7.668,21.66 8.012,21.604 C8.356,21.548 8.668,21.448 8.948,21.304 C9.228,21.16 9.456,20.956 9.632,20.692 C9.808,20.428 9.896,20.088 9.896,19.672 Z M16.712,25 L16.712,8.008 L28.136,8.008 L28.136,11.488 L20.672,11.488 L20.672,14.68 L27.728,14.68 L27.728,17.968 L20.672,17.968 L20.672,21.496 L28.568,21.496 L28.568,25 L16.712,25 Z M40.256,12.424 C39.8875918,11.9632059 39.4144703,11.597051 38.876,11.356 C38.308,11.092 37.76,10.96 37.232,10.96 C36.96,10.96 36.684,10.984 36.404,11.032 C36.124,11.08 35.872,11.172 35.648,11.308 C35.4252965,11.4428223 35.2331974,11.6226598 35.084,11.836 C34.932,12.052 34.856,12.328 34.856,12.664 C34.856,12.952 34.916,13.192 35.036,13.384 C35.156,13.576 35.332,13.744 35.564,13.888 C35.796,14.032 36.072,14.164 36.392,14.284 C36.712,14.404 37.072,14.528 37.472,14.656 C38.048,14.848 38.648,15.06 39.272,15.292 C39.896,15.524 40.464,15.832 40.976,16.216 C41.488,16.6 41.912,17.076 42.248,17.644 C42.584,18.212 42.752,18.92 42.752,19.768 C42.752,20.744 42.572,21.588 42.212,22.3 C41.8691141,22.9912028 41.3724033,23.5946449 40.76,24.064 C40.1351643,24.5363633 39.4267549,24.8864966 38.672,25.096 C37.8836466,25.3206065 37.0677232,25.4337048 36.248,25.432 C35.0433101,25.4340225 33.848148,25.2185681 32.72,24.796 C31.584,24.372 30.64,23.768 29.888,22.984 L32.576,20.248 C32.992,20.76 33.54,21.188 34.22,21.532 C34.9,21.876 35.576,22.048 36.248,22.048 C36.552,22.048 36.848,22.016 37.136,21.952 C37.424,21.888 37.676,21.784 37.892,21.64 C38.108,21.496 38.28,21.304 38.408,21.064 C38.536,20.824 38.6,20.536 38.6,20.2 C38.6,19.88 38.52,19.608 38.36,19.384 C38.1745574,19.1369189 37.9421019,18.9289324 37.676,18.772 C37.3276804,18.563862 36.9574352,18.394837 36.572,18.268 C36.132,18.116 35.632,17.952 35.072,17.776 C34.5280324,17.600013 33.9950804,17.3916408 33.476,17.152 C32.9664089,16.9189157 32.496665,16.6071029 32.084,16.228 C31.6685851,15.8417144 31.3341031,15.3767029 31.1,14.86 C30.852,14.324 30.728,13.672 30.728,12.904 C30.728,11.96 30.92,11.152 31.304,10.48 C31.6763196,9.82078727 32.1932831,9.25458917 32.816,8.824 C33.4575495,8.38407446 34.1729102,8.06297502 34.928,7.876 C35.712,7.676 36.504,7.576 37.304,7.576 C38.264,7.576 39.244,7.752 40.244,8.104 C41.2169479,8.43992509 42.1111682,8.97074078 42.872,9.664 L40.256,12.424 Z M52.424,11.512 L52.424,25 L48.32,25 L48.32,11.512 L43.52,11.512 L43.52,8.008 L57.224,8.008 L57.224,11.512 L52.424,11.512 Z"
              fill="#FFFFFF" fill-rule="nonzero"/>
    </g>
</svg>